<svg width="1440" height="248" viewBox="0 0 1440 248" fill="none" xmlns="http://www.w3.org/2000/svg">
<rect width="1440" height="248" fill="url(#paint0_linear)" fill-opacity="0.68"/>
<path d="M1440 248H0V139.208H35C69.55 139.208 144 152.768 144 152.768C192.75 161.645 248.51 163.953 284 163.174C349.51 161.736 348.53 149.709 427 142.362C527.28 132.971 621.93 143.894 638 145.83C697.73 153.026 694.92 159.33 735 160.336C797.48 161.913 813.85 146.827 904 141.1C926.34 139.681 975.19 136.752 1031 141.731C1060.34 144.348 1091.89 149.781 1155 160.651C1197.81 168.024 1212.42 171.231 1239 171.373C1270.07 171.537 1295.17 167.393 1315 164.12C1346.16 158.977 1351.66 154.862 1390 147.407C1406.01 144.294 1422.72 141.554 1440 139.208" fill="url(#paint1_linear)" fill-opacity="0.18"/>
<path d="M1440 248H0V148.889H35C69.55 148.889 144 161.242 144 161.242C192.75 169.329 248.51 171.432 284 170.722C349.51 169.412 348.53 158.455 427 151.762C527.28 143.206 621.93 153.158 638 154.922C697.73 161.477 694.92 167.22 735 168.136C797.48 169.573 813.85 155.829 904 150.612C926.34 149.32 975.19 146.651 1031 151.187C1060.34 153.571 1091.89 158.521 1155 168.424C1197.81 175.14 1212.42 178.062 1239 178.191C1270.07 178.341 1295.17 174.566 1315 171.584C1346.16 166.898 1351.66 163.149 1390 156.358C1406.01 153.522 1422.72 151.025 1440 148.889" fill="url(#paint2_linear)" fill-opacity="0.18"/>
<path d="M1440 248H0V162.257H35C69.55 162.257 144 172.944 144 172.944C192.75 179.94 248.51 181.759 284 181.146C349.51 180.012 348.53 170.533 427 164.743C527.28 157.341 621.93 165.95 638 167.476C697.73 173.148 694.92 178.116 735 178.909C797.48 180.151 813.85 168.262 904 163.748C926.34 162.63 975.19 160.321 1031 164.246C1060.34 166.308 1091.89 170.59 1155 179.157C1197.81 184.968 1212.42 187.495 1239 187.607C1270.07 187.737 1295.17 184.471 1315 181.891C1346.16 177.838 1351.66 174.594 1390 168.719C1406.01 166.265 1422.72 164.106 1440 162.257" fill="url(#paint3_linear)" fill-opacity="0.18"/>
<defs>
<linearGradient id="paint0_linear" x1="14.5" y1="105.922" x2="1484.01" y2="53.1221" gradientUnits="userSpaceOnUse">
<stop stop-color="#FF385C"/>
<stop offset="1" stop-color="#F86C66"/>
</linearGradient>
<linearGradient id="paint1_linear" x1="732.968" y1="138.602" x2="732.968" y2="248" gradientUnits="userSpaceOnUse">
<stop stop-color="#FF385C"/>
<stop offset="1" stop-color="#F86C66"/>
</linearGradient>
<linearGradient id="paint2_linear" x1="732.968" y1="148.336" x2="732.968" y2="248" gradientUnits="userSpaceOnUse">
<stop stop-color="#FF385C"/>
<stop offset="1" stop-color="#F86C66"/>
</linearGradient>
<linearGradient id="paint3_linear" x1="732.968" y1="161.779" x2="732.968" y2="248" gradientUnits="userSpaceOnUse">
<stop stop-color="#FF385C"/>
<stop offset="1" stop-color="#F86C66"/>
</linearGradient>
</defs>
</svg>
