<svg width="1440" height="209" viewBox="0 0 1440 209" fill="none" xmlns="http://www.w3.org/2000/svg">
<rect width="1440" height="209" fill="url(#paint0_linear)" fill-opacity="0.68"/>
<path d="M1440 209H0V116.626H35C69.55 116.626 144 128.139 144 128.139C192.75 135.676 248.51 137.636 284 136.975C349.51 135.754 348.53 125.542 427 119.303C527.28 111.33 621.93 120.605 638 122.249C697.73 128.359 694.92 133.711 735 134.565C797.48 135.904 813.85 123.095 904 118.232C926.34 117.028 975.19 114.54 1031 118.768C1060.34 120.99 1091.89 125.604 1155 134.833C1197.81 141.093 1212.42 143.816 1239 143.937C1270.07 144.076 1295.17 140.558 1315 137.778C1346.16 133.411 1351.66 129.917 1390 123.587C1406.01 120.944 1422.72 118.617 1440 116.626" fill="url(#paint1_linear)" fill-opacity="0.18"/>
<path d="M1440 209H0V126.523H35C69.55 126.523 144 136.803 144 136.803C192.75 143.533 248.51 145.282 284 144.692C349.51 143.602 348.53 134.484 427 128.914C527.28 121.794 621.93 130.076 638 131.543C697.73 136.999 694.92 141.778 735 142.54C797.48 143.736 813.85 132.299 904 127.958C926.34 126.882 975.19 124.661 1031 128.436C1060.34 130.42 1091.89 134.539 1155 142.779C1197.81 148.369 1212.42 150.8 1239 150.908C1270.07 151.032 1295.17 147.891 1315 145.409C1346.16 141.51 1351.66 138.39 1390 132.739C1406.01 130.379 1422.72 128.301 1440 126.523" fill="url(#paint2_linear)" fill-opacity="0.18"/>
<path d="M1440 209H0V150.441H35C69.55 150.441 144 157.74 144 157.74C192.75 162.518 248.51 163.761 284 163.341C349.51 162.567 348.53 156.094 427 152.139C527.28 147.084 621.93 152.964 638 154.006C697.73 157.879 694.92 161.272 735 161.814C797.48 162.662 813.85 154.542 904 151.46C926.34 150.696 975.19 149.119 1031 151.799C1060.34 153.208 1091.89 156.133 1155 161.983C1197.81 165.952 1212.42 167.678 1239 167.754C1270.07 167.843 1295.17 165.612 1315 163.85C1346.16 161.082 1351.66 158.867 1390 154.855C1406.01 153.179 1422.72 151.704 1440 150.441" fill="url(#paint3_linear)" fill-opacity="0.18"/>
<defs>
<linearGradient id="paint0_linear" x1="14.5" y1="89.2645" x2="1483.24" y2="26.6455" gradientUnits="userSpaceOnUse">
<stop stop-color="#FF385C"/>
<stop offset="1" stop-color="#F86C66"/>
</linearGradient>
<linearGradient id="paint1_linear" x1="732.968" y1="116.111" x2="732.968" y2="209" gradientUnits="userSpaceOnUse">
<stop stop-color="#FF385C"/>
<stop offset="1" stop-color="#F86C66"/>
</linearGradient>
<linearGradient id="paint2_linear" x1="732.968" y1="126.063" x2="732.968" y2="209" gradientUnits="userSpaceOnUse">
<stop stop-color="#FF385C"/>
<stop offset="1" stop-color="#F86C66"/>
</linearGradient>
<linearGradient id="paint3_linear" x1="732.968" y1="150.115" x2="732.968" y2="209" gradientUnits="userSpaceOnUse">
<stop stop-color="#FF385C"/>
<stop offset="1" stop-color="#F86C66"/>
</linearGradient>
</defs>
</svg>
