<svg width="18" height="18" viewBox="0 0 18 18" fill="none" xmlns="http://www.w3.org/2000/svg">
<path d="M17.9959 6.88097C17.994 6.86029 17.9899 6.83987 17.9836 6.82007C17.9795 6.80239 17.9737 6.78513 17.9665 6.76846C17.9581 6.75218 17.948 6.73679 17.9365 6.72255C17.9249 6.70564 17.9116 6.69006 17.8966 6.67603C17.8918 6.67185 17.8897 6.66612 17.8846 6.66194L14.9995 4.4212V2.09886C14.9995 1.60181 14.5965 1.19884 14.0994 1.19884H10.8482L9.54648 0.188108C9.2249 -0.0627027 8.77394 -0.0627027 8.45236 0.188108L7.15032 1.19884H3.89913C3.40208 1.19884 2.99911 1.60177 2.99911 2.09886V4.42123L0.114858 6.66197C0.10976 6.66619 0.107651 6.67189 0.10287 6.67607C0.0879279 6.69006 0.074533 6.70567 0.0629663 6.72258C0.0514348 6.73682 0.0413799 6.75218 0.0329774 6.7685C0.0256998 6.78513 0.0200044 6.80242 0.015891 6.82011C0.00963304 6.83962 0.00551966 6.85973 0.00358602 6.88012C0.00358602 6.88641 0 6.89183 0 6.89812V17.0992C0.000421885 17.29 0.0621577 17.4757 0.176102 17.6287C0.177895 17.6314 0.178211 17.6347 0.180286 17.6371C0.182395 17.6395 0.186895 17.6422 0.189883 17.6455C0.358427 17.8673 0.620558 17.998 0.899107 17.9992H17.0995C17.3791 17.9984 17.6424 17.867 17.8111 17.644C17.8135 17.641 17.8171 17.6401 17.8192 17.6371C17.8213 17.6342 17.8216 17.6314 17.8234 17.6287C17.9374 17.4757 17.9991 17.29 17.9995 17.0992V6.89897C17.9995 6.89267 17.9962 6.88726 17.9959 6.88097ZM8.81926 0.661498C8.92403 0.578246 9.07239 0.578246 9.17716 0.661498L9.86926 1.1988H8.12923L8.81926 0.661498ZM0.974695 17.3992L8.8193 11.3058C8.92413 11.2227 9.07239 11.2227 9.1772 11.3058L17.0239 17.3992H0.974695ZM17.3995 16.9315L9.54648 10.8323C9.22483 10.5817 8.77401 10.5817 8.45236 10.8323L0.599077 16.9315V7.35587L5.5153 11.1735C5.6463 11.275 5.83481 11.2512 5.93638 11.1202C6.03795 10.9892 6.01411 10.8007 5.88312 10.6991L0.888595 6.82095L2.99915 5.1808V7.49896C2.99915 7.66465 3.13348 7.79895 3.29914 7.79895C3.46484 7.79895 3.59914 7.66462 3.59914 7.49896V2.09883C3.59914 1.93313 3.73344 1.79883 3.89913 1.79883H14.0994C14.2651 1.79883 14.3994 1.93313 14.3994 2.09883V7.49896C14.3994 7.66465 14.5337 7.79895 14.6994 7.79895C14.865 7.79895 14.9993 7.66462 14.9993 7.49896V5.1808L17.1099 6.82095L12.1067 10.7061C12.0206 10.7713 11.9762 10.8777 11.9905 10.9848C12.0048 11.0918 12.0755 11.183 12.1756 11.2234C12.2758 11.2638 12.39 11.2472 12.4745 11.18L17.3994 7.35587V16.9315H17.3995Z" fill="white"/>
<path d="M12.5992 7.19866V5.99865C12.5992 4.01037 10.9874 2.39856 8.99913 2.39856C7.01086 2.39856 5.39905 4.01037 5.39905 5.99865C5.39905 7.98692 7.01086 9.59873 8.99913 9.59873C9.16483 9.59873 9.29913 9.46443 9.29913 9.29874C9.29913 9.13304 9.16483 8.99874 8.99913 8.99874C7.34225 8.99874 5.99907 7.65556 5.99907 5.99868C5.99907 4.3418 7.34225 2.99862 8.99913 2.99862C10.656 2.99862 11.9992 4.3418 11.9992 5.99868V7.1987C11.9992 7.53009 11.7306 7.79872 11.3992 7.79872C11.0678 7.79872 10.7991 7.53009 10.7991 7.1987V5.99868C10.7991 5.83299 10.6648 5.69868 10.4991 5.69868C10.3334 5.69868 10.1991 5.83299 10.1991 5.99868C10.1991 6.66143 9.66188 7.1987 8.99913 7.1987C8.33639 7.1987 7.79912 6.66143 7.79912 5.99868C7.79912 5.33593 8.33639 4.79866 8.99913 4.79866C9.16483 4.79866 9.29913 4.66436 9.29913 4.49867C9.29913 4.33297 9.16483 4.19867 8.99913 4.19867C8.19351 4.19688 7.48478 4.7306 7.26399 5.50539C7.0432 6.28018 7.36408 7.10732 8.04964 7.53047C8.73521 7.95363 9.61842 7.86974 10.2121 7.32505C10.2774 7.9595 10.8288 8.43123 11.4657 8.39752C12.1027 8.36377 12.6012 7.83648 12.5992 7.19866Z" fill="white"/>
</svg>
