<svg width="48" height="33" viewBox="0 0 48 33" fill="none" xmlns="http://www.w3.org/2000/svg">
<path d="M9.79028 1.5C10.2045 1.5 10.5403 1.16421 10.5403 0.749999C10.5403 0.335786 10.2045 0 9.79028 0C9.37607 0 9.04028 0.335786 9.04028 0.749999C9.04028 1.16421 9.37607 1.5 9.79028 1.5Z" fill="white"/>
<path d="M47.4984 3.89344C47.0109 2.73868 46.1937 1.75336 45.1489 1.06081C44.1042 0.368265 42.8784 -0.00073369 41.625 3.28892e-06H12.7903C12.5914 3.28892e-06 12.4006 0.079021 12.26 0.219673C12.1193 0.360325 12.0403 0.55109 12.0403 0.750003C12.0403 0.948915 12.1193 1.13968 12.26 1.28033C12.4006 1.42098 12.5914 1.5 12.7903 1.5H41.625C42.9179 1.5 44.1579 2.01362 45.0721 2.92785C45.9864 3.84209 46.5 5.08207 46.5 6.375V26.625C46.5 27.9179 45.9864 29.1579 45.0721 30.0721C44.1579 30.9864 42.9179 31.5 41.625 31.5H6.375C5.08207 31.5 3.84209 30.9864 2.92786 30.0721C2.01362 29.1579 1.5 27.9179 1.5 26.625V6.375C1.5 5.08207 2.01362 3.84209 2.92786 2.92785C3.84209 2.01362 5.08207 1.5 6.375 1.5H6.79031C6.98922 1.5 7.17999 1.42098 7.32064 1.28033C7.46129 1.13968 7.54031 0.948915 7.54031 0.750003C7.54031 0.55109 7.46129 0.360325 7.32064 0.219673C7.17999 0.079021 6.98922 3.28892e-06 6.79031 3.28892e-06H6.375C5.53758 -0.000847737 4.70822 0.163465 3.93439 0.483537C3.16055 0.803609 2.45744 1.27316 1.8653 1.8653C1.27316 2.45744 0.80361 3.16055 0.483538 3.93439C0.163466 4.70822 -0.000847738 5.53758 3.28891e-06 6.375V26.625C-0.000452676 27.4623 0.16413 28.2915 0.484342 29.0651C0.804554 29.8388 1.27412 30.5417 1.86618 31.1338C2.45824 31.7259 3.1612 32.1954 3.93485 32.5156C4.70851 32.8358 5.53769 33.0004 6.375 33H41.625C42.4623 33.0005 43.2915 32.8359 44.0652 32.5157C44.8388 32.1955 45.5418 31.726 46.1339 31.1339C46.7259 30.5418 47.1955 29.8388 47.5157 29.0652C47.8359 28.2915 48.0005 27.4623 48 26.625V6.375C48.0016 5.52247 47.831 4.67839 47.4984 3.89344Z" fill="white"/>
<path d="M7.6245 11.4852L7.66856 11.689C7.66856 11.6914 7.66959 11.6936 7.67006 11.696L8.39774 15.0573L8.41574 15.125C8.77416 16.2586 9.5142 17.2331 10.51 17.8827C10.5036 17.9215 10.5003 17.9607 10.5 18V18.8851L9.60121 19.0649L9.59681 19.0657L6.01453 19.7823C5.16534 19.954 4.40152 20.4138 3.85223 21.0838C3.30295 21.7538 3.0019 22.593 3 23.4593V27.75C3 27.9489 3.07902 28.1397 3.21967 28.2803C3.36032 28.421 3.55109 28.5 3.75 28.5C3.94891 28.5 4.13968 28.421 4.28033 28.2803C4.42098 28.1397 4.5 27.9489 4.5 27.75V23.4593C4.50115 22.9395 4.68178 22.436 5.01135 22.034C5.34092 21.632 5.79921 21.3562 6.30872 21.2531L9.02343 20.7102C9.13699 21.8185 9.6576 22.8452 10.4845 23.5917C11.3115 24.3383 12.3859 24.7515 13.5 24.7515C14.614 24.7515 15.6885 24.3383 16.5154 23.5917C17.3424 22.8452 17.863 21.8185 17.9765 20.7102L20.6912 21.2531C21.2007 21.3562 21.659 21.632 21.9886 22.034C22.3182 22.436 22.4988 22.9395 22.5 23.4593V27.75C22.5 27.9489 22.579 28.1397 22.7196 28.2803C22.8603 28.421 23.0511 28.5 23.25 28.5C23.4489 28.5 23.6397 28.421 23.7803 28.2803C23.921 28.1397 24 27.9489 24 27.75V23.4593C23.9981 22.593 23.697 21.7538 23.1477 21.0838C22.5985 20.4138 21.8346 19.954 20.9854 19.7823L17.4032 19.0657L17.3988 19.0649L16.5 18.8851V18C16.4997 17.9381 16.4918 17.8765 16.4765 17.8166C17.424 17.1676 18.127 16.22 18.4733 15.125L18.4839 15.0916L19.2656 11.4808C19.4409 10.6473 19.4272 9.78508 19.2255 8.95755C19.0237 8.13003 18.6391 7.35823 18.0998 6.69891C17.5344 6.01136 16.8237 5.45759 16.0188 5.07739C15.2139 4.69719 14.3348 4.5 13.4446 4.5C12.5545 4.5 11.6753 4.69719 10.8704 5.07739C10.0655 5.45759 9.35484 6.01136 8.78943 6.69891C8.24978 7.35887 7.86499 8.13144 7.66339 8.95977C7.46178 9.78809 7.44849 10.6511 7.6245 11.4852ZM16.4953 20.414C16.4525 21.1794 16.1182 21.8994 15.5612 22.4261C15.0042 22.9528 14.2666 23.2463 13.5 23.2463C12.7334 23.2463 11.9958 22.9528 11.4388 22.4261C10.8818 21.8994 10.5475 21.1794 10.5047 20.414L12 20.1149V18.5552C12.9833 18.8256 14.0228 18.8143 15 18.5227V20.1149L16.4953 20.414ZM17.0329 14.7041C16.5351 16.2281 15.0974 17.25 13.4444 17.25C11.7914 17.25 10.3537 16.2281 9.85602 14.7041L9.19152 11.6344C9.47677 11.1351 9.92713 10.7508 10.4651 10.5477C11.0276 10.7717 12.3617 11.25 13.5 11.25C14.6383 11.25 15.97 10.7725 16.5335 10.5483C17.0196 10.7346 17.4364 11.0666 17.7268 11.4987L17.0329 14.7041ZM9.9539 7.64429C10.3787 7.12999 10.9118 6.71591 11.5152 6.43166C12.1186 6.14741 12.7774 6.00002 13.4444 6.00002C14.1115 6.00002 14.7702 6.14741 15.3737 6.43166C15.9771 6.71591 16.5102 7.12999 16.935 7.64429C17.3796 8.18986 17.6817 8.8374 17.8141 9.52866C17.4609 9.299 17.0736 9.12682 16.6665 9.01857L16.4234 8.96354L16.1959 9.06441C16.1804 9.07135 14.6344 9.75001 13.5 9.75001C12.3656 9.75001 10.8196 9.07135 10.8046 9.0646L10.5767 8.96335L10.3335 9.01866C9.87812 9.14001 9.44757 9.34029 9.0614 9.61041C9.18422 8.88899 9.4917 8.21165 9.9539 7.64429Z" fill="white"/>
<path d="M6.75 26.25V27.75C6.75 27.9489 6.82902 28.1397 6.96967 28.2803C7.11032 28.421 7.30109 28.5 7.5 28.5C7.69891 28.5 7.88968 28.421 8.03033 28.2803C8.17098 28.1397 8.25 27.9489 8.25 27.75V26.25C8.25 26.0511 8.17098 25.8603 8.03033 25.7197C7.88968 25.579 7.69891 25.5 7.5 25.5C7.30109 25.5 7.11032 25.579 6.96967 25.7197C6.82902 25.8603 6.75 26.0511 6.75 26.25Z" fill="white"/>
<path d="M18.75 26.25V27.75C18.75 27.9489 18.829 28.1397 18.9697 28.2803C19.1103 28.421 19.3011 28.5 19.5 28.5C19.6989 28.5 19.8897 28.421 20.0303 28.2803C20.171 28.1397 20.25 27.9489 20.25 27.75V26.25C20.25 26.0511 20.171 25.8603 20.0303 25.7197C19.8897 25.579 19.6989 25.5 19.5 25.5C19.3011 25.5 19.1103 25.579 18.9697 25.7197C18.829 25.8603 18.75 26.0511 18.75 26.25Z" fill="white"/>
<path d="M42 12C42 12.1989 42.079 12.3897 42.2197 12.5303C42.3603 12.671 42.5511 12.75 42.75 12.75C42.9489 12.75 43.1397 12.671 43.2803 12.5303C43.421 12.3897 43.5 12.1989 43.5 12V9.75C43.5 9.55109 43.421 9.36032 43.2803 9.21967C43.1397 9.07902 42.9489 9 42.75 9C42.5511 9 42.3603 9.07902 42.2197 9.21967C42.079 9.36032 42 9.55109 42 9.75V12Z" fill="white"/>
<path d="M39 12C39 12.1989 39.079 12.3897 39.2197 12.5303C39.3603 12.671 39.5511 12.75 39.75 12.75C39.9489 12.75 40.1397 12.671 40.2803 12.5303C40.421 12.3897 40.5 12.1989 40.5 12V9.75C40.5 9.55109 40.421 9.36032 40.2803 9.21967C40.1397 9.07902 39.9489 9 39.75 9C39.5511 9 39.3603 9.07902 39.2197 9.21967C39.079 9.36032 39 9.55109 39 9.75V12Z" fill="white"/>
<path d="M36 12C36 12.1989 36.079 12.3897 36.2197 12.5303C36.3603 12.671 36.5511 12.75 36.75 12.75C36.9489 12.75 37.1397 12.671 37.2803 12.5303C37.421 12.3897 37.5 12.1989 37.5 12V9.75C37.5 9.55109 37.421 9.36032 37.2803 9.21967C37.1397 9.07902 36.9489 9 36.75 9C36.5511 9 36.3603 9.07902 36.2197 9.21967C36.079 9.36032 36 9.55109 36 9.75V12Z" fill="white"/>
<path d="M33 12C33 12.1989 33.079 12.3897 33.2197 12.5303C33.3603 12.671 33.5511 12.75 33.75 12.75C33.9489 12.75 34.1397 12.671 34.2803 12.5303C34.421 12.3897 34.5 12.1989 34.5 12V9.75C34.5 9.55109 34.421 9.36032 34.2803 9.21967C34.1397 9.07902 33.9489 9 33.75 9C33.5511 9 33.3603 9.07902 33.2197 9.21967C33.079 9.36032 33 9.55109 33 9.75V12Z" fill="white"/>
<path d="M29.9999 12C29.9999 12.1989 30.079 12.3897 30.2196 12.5303C30.3603 12.671 30.551 12.75 30.7499 12.75C30.9489 12.75 31.1396 12.671 31.2803 12.5303C31.4209 12.3897 31.4999 12.1989 31.4999 12V9.75C31.4999 9.55109 31.4209 9.36032 31.2803 9.21967C31.1396 9.07902 30.9489 9 30.7499 9C30.551 9 30.3603 9.07902 30.2196 9.21967C30.079 9.36032 29.9999 9.55109 29.9999 9.75V12Z" fill="white"/>
<path d="M26.9999 12C26.9999 12.1989 27.079 12.3897 27.2196 12.5303C27.3603 12.671 27.551 12.75 27.7499 12.75C27.9489 12.75 28.1396 12.671 28.2803 12.5303C28.4209 12.3897 28.4999 12.1989 28.4999 12V9.75C28.4999 9.55109 28.4209 9.36032 28.2803 9.21967C28.1396 9.07902 27.9489 9 27.7499 9C27.551 9 27.3603 9.07902 27.2196 9.21967C27.079 9.36032 26.9999 9.55109 26.9999 9.75V12Z" fill="white"/>
<path d="M39.75 7.5C40.1642 7.5 40.5 7.16421 40.5 6.75C40.5 6.33579 40.1642 6 39.75 6C39.3358 6 39 6.33579 39 6.75C39 7.16421 39.3358 7.5 39.75 7.5Z" fill="white"/>
<path d="M27.7499 7.5C28.1642 7.5 28.4999 7.16421 28.4999 6.75C28.4999 6.33579 28.1642 6 27.7499 6C27.3357 6 26.9999 6.33579 26.9999 6.75C26.9999 7.16421 27.3357 7.5 27.7499 7.5Z" fill="white"/>
<path d="M36.75 7.5C37.1642 7.5 37.5 7.16421 37.5 6.75C37.5 6.33579 37.1642 6 36.75 6C36.3358 6 36 6.33579 36 6.75C36 7.16421 36.3358 7.5 36.75 7.5Z" fill="white"/>
<path d="M30.7499 7.5C31.1642 7.5 31.4999 7.16421 31.4999 6.75C31.4999 6.33579 31.1642 6 30.7499 6C30.3357 6 29.9999 6.33579 29.9999 6.75C29.9999 7.16421 30.3357 7.5 30.7499 7.5Z" fill="white"/>
<path d="M42.75 7.5C43.1642 7.5 43.5 7.16421 43.5 6.75C43.5 6.33579 43.1642 6 42.75 6C42.3358 6 42 6.33579 42 6.75C42 7.16421 42.3358 7.5 42.75 7.5Z" fill="white"/>
<path d="M33.75 7.5C34.1642 7.5 34.5 7.16421 34.5 6.75C34.5 6.33579 34.1642 6 33.75 6C33.3358 6 33 6.33579 33 6.75C33 7.16421 33.3358 7.5 33.75 7.5Z" fill="white"/>
<path d="M33.75 18H42.75C42.9489 18 43.1397 17.921 43.2803 17.7803C43.421 17.6397 43.5 17.4489 43.5 17.25C43.5 17.0511 43.421 16.8603 43.2803 16.7197C43.1397 16.579 42.9489 16.5 42.75 16.5H33.75C33.5511 16.5 33.3603 16.579 33.2197 16.7197C33.079 16.8603 33 17.0511 33 17.25C33 17.4489 33.079 17.6397 33.2197 17.7803C33.3603 17.921 33.5511 18 33.75 18Z" fill="white"/>
<path d="M30.7499 18C31.1642 18 31.4999 17.6642 31.4999 17.25C31.4999 16.8358 31.1642 16.5 30.7499 16.5C30.3357 16.5 29.9999 16.8358 29.9999 17.25C29.9999 17.6642 30.3357 18 30.7499 18Z" fill="white"/>
<path d="M27.7499 18C28.1642 18 28.4999 17.6642 28.4999 17.25C28.4999 16.8358 28.1642 16.5 27.7499 16.5C27.3357 16.5 26.9999 16.8358 26.9999 17.25C26.9999 17.6642 27.3357 18 27.7499 18Z" fill="white"/>
<path d="M27.7499 21H42.7499C42.9488 21 43.1396 20.921 43.2803 20.7803C43.4209 20.6397 43.4999 20.4489 43.4999 20.25C43.4999 20.0511 43.4209 19.8603 43.2803 19.7197C43.1396 19.579 42.9488 19.5 42.7499 19.5H27.7499C27.551 19.5 27.3603 19.579 27.2196 19.7197C27.079 19.8603 26.9999 20.0511 26.9999 20.25C26.9999 20.4489 27.079 20.6397 27.2196 20.7803C27.3603 20.921 27.551 21 27.7499 21Z" fill="white"/>
<path d="M27.7499 24H42.7499C42.9488 24 43.1396 23.921 43.2803 23.7803C43.4209 23.6397 43.4999 23.4489 43.4999 23.25C43.4999 23.0511 43.4209 22.8603 43.2803 22.7197C43.1396 22.579 42.9488 22.5 42.7499 22.5H27.7499C27.551 22.5 27.3603 22.579 27.2196 22.7197C27.079 22.8603 26.9999 23.0511 26.9999 23.25C26.9999 23.4489 27.079 23.6397 27.2196 23.7803C27.3603 23.921 27.551 24 27.7499 24Z" fill="white"/>
<path d="M42.75 27C43.1642 27 43.5 26.6642 43.5 26.25C43.5 25.8358 43.1642 25.5 42.75 25.5C42.3358 25.5 42 25.8358 42 26.25C42 26.6642 42.3358 27 42.75 27Z" fill="white"/>
<path d="M39.75 27C40.1642 27 40.5 26.6642 40.5 26.25C40.5 25.8358 40.1642 25.5 39.75 25.5C39.3358 25.5 39 25.8358 39 26.25C39 26.6642 39.3358 27 39.75 27Z" fill="white"/>
<path d="M27.7499 27H36.7499C36.9488 27 37.1396 26.921 37.2803 26.7803C37.4209 26.6397 37.4999 26.4489 37.4999 26.25C37.4999 26.0511 37.4209 25.8603 37.2803 25.7197C37.1396 25.579 36.9488 25.5 36.7499 25.5H27.7499C27.551 25.5 27.3603 25.579 27.2196 25.7197C27.079 25.8603 26.9999 26.0511 26.9999 26.25C26.9999 26.4489 27.079 26.6397 27.2196 26.7803C27.3603 26.921 27.551 27 27.7499 27Z" fill="white"/>
</svg>
