<svg width="38" height="38" viewBox="0 0 38 38" fill="none" xmlns="http://www.w3.org/2000/svg">
<path d="M38 2.71888C38 1.32175 36.8638 0.185547 35.4667 0.185547H2.53333C1.1362 0.185547 0 1.32175 0 2.71888C0 3.89625 0.810667 4.87918 1.9 5.16228V35.9144L3.8 34.0144L7.6 37.8144L11.4 34.0144L15.2 37.8144L19 34.0144L22.8 37.8144L26.6 34.0144L30.4 37.8144L34.2 34.0144L36.1 35.9144V5.16228C37.1893 4.87918 38 3.89625 38 2.71888ZM34.8333 32.8567L34.2 32.2233L30.4 36.0233L26.6 32.2233L22.8 36.0233L19 32.2233L15.2 36.0233L11.4 32.2233L7.6 36.0233L3.8 32.2233L3.16667 32.8567V5.25221V3.35221H34.8333V5.25221V32.8567ZM36.1 3.81518V2.08555H1.9V3.81518C1.5219 3.59668 1.26667 3.18691 1.26667 2.71888C1.26667 2.02031 1.83477 1.45221 2.53333 1.45221H35.4667C36.1652 1.45221 36.7333 2.02031 36.7333 2.71888C36.7333 3.18691 36.4781 3.59668 36.1 3.81518Z" fill="white"/>
<path d="M27.8667 25.5189H18.3667C18.0171 25.5189 17.7333 25.802 17.7333 26.1523C17.7333 26.5025 18.0171 26.7856 18.3667 26.7856H27.8667C28.2163 26.7856 28.5 26.5025 28.5 26.1523C28.5 25.802 28.2163 25.5189 27.8667 25.5189Z" fill="white"/>
<path d="M30.5837 25.7026C30.4697 25.8223 30.4 25.9806 30.4 26.1523C30.4 26.3169 30.4697 26.4816 30.5837 26.6019C30.704 26.7159 30.8687 26.7856 31.0334 26.7856C31.198 26.7856 31.3627 26.7159 31.483 26.6019C31.597 26.4816 31.6667 26.3169 31.6667 26.1523C31.6667 25.9806 31.597 25.8223 31.483 25.7026C31.2424 25.4683 30.8244 25.4683 30.5837 25.7026Z" fill="white"/>
<path d="M31.0334 16.6522H21.5334C21.1838 16.6522 20.9 16.9353 20.9 17.2856C20.9 17.6358 21.1838 17.9189 21.5334 17.9189H31.0334C31.383 17.9189 31.6667 17.6358 31.6667 17.2856C31.6667 16.9353 31.383 16.6522 31.0334 16.6522Z" fill="white"/>
<path d="M31.0333 21.0856H24.7C24.3504 21.0856 24.0667 21.3687 24.0667 21.7189C24.0667 22.0691 24.3504 22.3522 24.7 22.3522H31.0333C31.3829 22.3522 31.6667 22.0691 31.6667 21.7189C31.6667 21.3687 31.3829 21.0856 31.0333 21.0856Z" fill="white"/>
<path d="M17.7333 21.7189C17.7333 22.0691 18.0171 22.3522 18.3667 22.3522H19.6333C19.9829 22.3522 20.2667 22.0691 20.2667 21.7189C20.2667 21.3687 19.9829 21.0856 19.6333 21.0856H18.3667C18.0171 21.0856 17.7333 21.3687 17.7333 21.7189Z" fill="white"/>
<path d="M28.5 12.8522C28.5 12.502 28.2163 12.2189 27.8667 12.2189H18.3667C18.0171 12.2189 17.7333 12.502 17.7333 12.8522C17.7333 13.2024 18.0171 13.4855 18.3667 13.4855H27.8667C28.2163 13.4855 28.5 13.2024 28.5 12.8522Z" fill="white"/>
<path d="M30.5837 12.4026C30.4697 12.5223 30.4 12.6806 30.4 12.8522C30.4 13.0169 30.4697 13.1816 30.5837 13.3019C30.704 13.4159 30.8687 13.4856 31.0334 13.4856C31.2044 13.4856 31.3627 13.4159 31.483 13.3019C31.597 13.1816 31.6667 13.0169 31.6667 12.8522C31.6667 12.6876 31.597 12.5223 31.483 12.4026C31.2487 12.1682 30.818 12.1682 30.5837 12.4026Z" fill="white"/>
<path d="M19.4496 17.7352C19.5636 17.6149 19.6333 17.4566 19.6333 17.2856C19.6333 17.1139 19.5636 16.9556 19.4496 16.8359C19.2153 16.6016 18.791 16.6016 18.5503 16.8359C18.4363 16.9556 18.3666 17.1139 18.3666 17.2856C18.3666 17.4566 18.4363 17.6149 18.5503 17.7352C18.6706 17.8492 18.8353 17.9189 19 17.9189C19.1646 17.9189 19.3293 17.8492 19.4496 17.7352Z" fill="white"/>
<path d="M22.6163 22.1686C22.7303 22.0483 22.8 21.8899 22.8 21.7189C22.8 21.5473 22.7303 21.3833 22.6163 21.2693C22.382 21.0349 21.9577 21.0349 21.717 21.2693C21.603 21.389 21.5333 21.5543 21.5333 21.7189C21.5333 21.8836 21.603 22.0483 21.717 22.1686C21.8373 22.2826 22.002 22.3523 22.1667 22.3523C22.3313 22.3523 22.496 22.2826 22.6163 22.1686Z" fill="white"/>
<path d="M10.7667 13.5495V12.8522C10.7667 12.502 10.4829 12.2189 10.1333 12.2189C9.78374 12.2189 9.50001 12.502 9.50001 12.8522V13.5514C8.80904 13.692 8.17951 14.0587 7.71527 14.6078C7.32831 15.0651 7.14907 15.6503 7.21241 16.2564C7.27701 16.8764 7.59621 17.4515 8.08831 17.834L9.50001 18.9322V22.3763C8.76471 22.1141 8.23334 21.4174 8.23334 20.5928C8.23334 20.2426 7.94961 19.9595 7.60001 19.9595C7.25041 19.9595 6.96667 20.2426 6.96667 20.5928C6.96667 22.1217 8.05664 23.401 9.50001 23.6955V24.2516C9.50001 24.6018 9.78374 24.8849 10.1333 24.8849C10.4829 24.8849 10.7667 24.6018 10.7667 24.2516V23.693C11.4576 23.5524 12.0872 23.1857 12.552 22.6366C12.939 22.178 13.1176 21.5928 13.0543 20.9867C12.989 20.3673 12.6705 19.7929 12.1784 19.411L10.7667 18.3134V14.8694C11.502 15.1316 12.0333 15.8282 12.0333 16.6528C12.0333 17.0031 12.3171 17.2862 12.6667 17.2862C13.0163 17.2862 13.3 17.0031 13.3 16.6528C13.3 15.1233 12.21 13.844 10.7667 13.5495ZM11.4006 20.411C11.6217 20.5827 11.7654 20.8417 11.7946 21.1191C11.8218 21.3788 11.7471 21.6277 11.5849 21.8189C11.3645 22.0792 11.0795 22.2616 10.7667 22.3731V19.917L11.4006 20.411ZM8.86604 16.8346C8.64437 16.6623 8.50124 16.4033 8.47211 16.1253C8.44551 15.8662 8.51961 15.618 8.68174 15.4261C8.90214 15.1658 9.18714 14.9834 9.50001 14.8719V17.3273L8.86604 16.8346Z" fill="white"/>
<path d="M25.3333 7.78559C25.6831 7.78559 25.9667 7.50203 25.9667 7.15225C25.9667 6.80247 25.6831 6.51892 25.3333 6.51892C24.9836 6.51892 24.7 6.80247 24.7 7.15225C24.7 7.50203 24.9836 7.78559 25.3333 7.78559Z" fill="white"/>
<path d="M22.8 7.78559C23.1498 7.78559 23.4334 7.50203 23.4334 7.15225C23.4334 6.80247 23.1498 6.51892 22.8 6.51892C22.4502 6.51892 22.1667 6.80247 22.1667 7.15225C22.1667 7.50203 22.4502 7.78559 22.8 7.78559Z" fill="white"/>
<path d="M27.8666 7.78559C28.2164 7.78559 28.4999 7.50203 28.4999 7.15225C28.4999 6.80247 28.2164 6.51892 27.8666 6.51892C27.5168 6.51892 27.2333 6.80247 27.2333 7.15225C27.2333 7.50203 27.5168 7.78559 27.8666 7.78559Z" fill="white"/>
<path d="M20.2667 7.78559C20.6165 7.78559 20.9 7.50203 20.9 7.15225C20.9 6.80247 20.6165 6.51892 20.2667 6.51892C19.9169 6.51892 19.6334 6.80247 19.6334 7.15225C19.6334 7.50203 19.9169 7.78559 20.2667 7.78559Z" fill="white"/>
<path d="M30.4001 7.78559C30.7498 7.78559 31.0334 7.50203 31.0334 7.15225C31.0334 6.80247 30.7498 6.51892 30.4001 6.51892C30.0503 6.51892 29.7667 6.80247 29.7667 7.15225C29.7667 7.50203 30.0503 7.78559 30.4001 7.78559Z" fill="white"/>
<path d="M12.6667 7.78559C13.0164 7.78559 13.3 7.50203 13.3 7.15225C13.3 6.80247 13.0164 6.51892 12.6667 6.51892C12.3169 6.51892 12.0333 6.80247 12.0333 7.15225C12.0333 7.50203 12.3169 7.78559 12.6667 7.78559Z" fill="white"/>
<path d="M15.2 7.78559C15.5498 7.78559 15.8333 7.50203 15.8333 7.15225C15.8333 6.80247 15.5498 6.51892 15.2 6.51892C14.8502 6.51892 14.5667 6.80247 14.5667 7.15225C14.5667 7.50203 14.8502 7.78559 15.2 7.78559Z" fill="white"/>
<path d="M17.7333 7.78559C18.0831 7.78559 18.3666 7.50203 18.3666 7.15225C18.3666 6.80247 18.0831 6.51892 17.7333 6.51892C17.3835 6.51892 17.1 6.80247 17.1 7.15225C17.1 7.50203 17.3835 7.78559 17.7333 7.78559Z" fill="white"/>
<path d="M32.9334 7.78559C33.2832 7.78559 33.5667 7.50203 33.5667 7.15225C33.5667 6.80247 33.2832 6.51892 32.9334 6.51892C32.5836 6.51892 32.3 6.80247 32.3 7.15225C32.3 7.50203 32.5836 7.78559 32.9334 7.78559Z" fill="white"/>
<path d="M10.1333 7.78559C10.4831 7.78559 10.7667 7.50203 10.7667 7.15225C10.7667 6.80247 10.4831 6.51892 10.1333 6.51892C9.78355 6.51892 9.5 6.80247 9.5 7.15225C9.5 7.50203 9.78355 7.78559 10.1333 7.78559Z" fill="white"/>
<path d="M7.60001 7.78559C7.94979 7.78559 8.23334 7.50203 8.23334 7.15225C8.23334 6.80247 7.94979 6.51892 7.60001 6.51892C7.25023 6.51892 6.96667 6.80247 6.96667 7.15225C6.96667 7.50203 7.25023 7.78559 7.60001 7.78559Z" fill="white"/>
<path d="M5.06668 7.78559C5.41646 7.78559 5.70002 7.50203 5.70002 7.15225C5.70002 6.80247 5.41646 6.51892 5.06668 6.51892C4.7169 6.51892 4.43335 6.80247 4.43335 7.15225C4.43335 7.50203 4.7169 7.78559 5.06668 7.78559Z" fill="white"/>
</svg>
