<svg width="16" height="16" viewBox="0 0 16 16" fill="none" xmlns="http://www.w3.org/2000/svg">
<g clip-path="url(#clip0)">
<path d="M8.00267 3.89209C5.73401 3.89209 3.89734 5.73076 3.89734 7.99742C3.89734 10.2661 5.73601 12.1028 8.00267 12.1028C10.2713 12.1028 12.108 10.2641 12.108 7.99742C12.108 5.72876 10.2693 3.89209 8.00267 3.89209ZM8.00267 10.6621C6.53001 10.6621 5.33801 9.46942 5.33801 7.99742C5.33801 6.52542 6.53067 5.33276 8.00267 5.33276C9.47467 5.33276 10.6673 6.52542 10.6673 7.99742C10.668 9.46942 9.47534 10.6621 8.00267 10.6621Z" fill="white"/>
<path d="M11.2985 0.0512343C9.82645 -0.0174323 6.18045 -0.014099 4.70712 0.0512343C3.41245 0.111901 2.27045 0.424568 1.34979 1.34523C-0.188881 2.8839 0.0077853 4.95724 0.0077853 7.9979C0.0077853 11.1099 -0.165548 13.1352 1.34979 14.6506C2.89445 16.1946 4.99779 15.9926 8.00245 15.9926C11.0851 15.9926 12.1491 15.9946 13.2391 15.5726C14.7211 14.9972 15.8398 13.6726 15.9491 11.2932C16.0185 9.82057 16.0145 6.17524 15.9491 4.7019C15.8171 1.89324 14.3098 0.189901 11.2985 0.0512343ZM13.6285 13.6326C12.6198 14.6412 11.2205 14.5512 7.98312 14.5512C4.64979 14.5512 3.31312 14.6006 2.33779 13.6226C1.21445 12.5046 1.41779 10.7092 1.41779 7.98724C1.41779 4.3039 1.03979 1.65123 4.73645 1.4619C5.58579 1.4319 5.83579 1.4219 7.97379 1.4219L8.00379 1.4419C11.5565 1.4419 14.3438 1.0699 14.5111 4.7659C14.5491 5.60924 14.5578 5.86257 14.5578 7.99724C14.5571 11.2919 14.6198 12.6366 13.6285 13.6326Z" fill="white"/>
<path d="M12.2706 4.6893C12.8004 4.6893 13.2299 4.25979 13.2299 3.72996C13.2299 3.20014 12.8004 2.77063 12.2706 2.77063C11.7408 2.77063 11.3113 3.20014 11.3113 3.72996C11.3113 4.25979 11.7408 4.6893 12.2706 4.6893Z" fill="white"/>
</g>
<defs>
<clipPath id="clip0">
<rect width="16" height="16" fill="white"/>
</clipPath>
</defs>
</svg>
