<svg width="50" height="50" viewBox="0 0 50 50" fill="none" xmlns="http://www.w3.org/2000/svg">
<g clip-path="url(#clip0)">
<path d="M49.377 19.4863C48.5953 16.0073 47.0754 12.7369 44.9199 9.89641C43.861 8.50004 42.6591 7.21803 41.334 6.07122C41.1773 5.93563 40.9732 5.86784 40.7665 5.88277C40.5598 5.89769 40.3675 5.99411 40.2319 6.15081C40.0964 6.3075 40.0286 6.51164 40.0435 6.71832C40.0584 6.92499 40.1548 7.11727 40.3115 7.25286C42.7667 9.37642 44.7539 11.9868 46.1473 14.9187C47.5407 17.8505 48.3099 21.0398 48.4062 24.2845C48.5024 27.5292 47.9236 30.7585 46.7064 33.7677C45.4892 36.777 43.6602 39.5006 41.3353 41.766C39.0103 44.0313 36.2401 45.789 33.2003 46.9277C30.1604 48.0663 26.9172 48.5611 23.6761 48.3806C20.435 48.2002 17.2667 47.3484 14.3721 45.8794C11.4774 44.4103 8.91945 42.3559 6.86035 39.8465C6.79631 39.7641 6.71641 39.6953 6.62536 39.6443C6.53431 39.5933 6.43395 39.561 6.33022 39.5494C6.22649 39.5378 6.12149 39.5471 6.02142 39.5768C5.92135 39.6064 5.82823 39.6558 5.74757 39.7221C5.66691 39.7883 5.60035 39.8701 5.5518 39.9625C5.50326 40.0549 5.47372 40.156 5.46493 40.2601C5.45614 40.3641 5.46829 40.4688 5.50064 40.568C5.533 40.6672 5.58491 40.759 5.65332 40.8378C7.95816 43.6469 10.8461 45.9214 14.1172 47.5037C15.7787 48.3069 17.5245 48.9227 19.3223 49.3397C22.8383 50.1493 26.487 50.1956 30.0225 49.4754C33.2199 48.8202 36.2572 47.5419 38.9609 45.7136C42.9809 43.001 46.1274 39.1802 48.0186 34.7146C48.6582 33.2025 49.1463 31.6307 49.4756 30.0223C50.1844 26.5424 50.1508 22.9521 49.377 19.4862V19.4863Z" fill="white"/>
<path d="M4.43459 37.0262C4.28817 37.0267 4.14478 37.068 4.02052 37.1455C3.86092 37.2455 3.74282 37.3998 3.68797 37.58C3.63312 37.7602 3.64522 37.9541 3.72204 38.1261C3.79886 38.2981 3.93522 38.4365 4.10602 38.5159C4.27682 38.5953 4.47056 38.6104 4.65156 38.5582C4.83255 38.5061 4.98863 38.3904 5.09104 38.2323C5.19345 38.0742 5.23531 37.8844 5.20889 37.6979C5.18248 37.5115 5.08958 37.3408 4.9473 37.2174C4.80502 37.0939 4.62294 37.0261 4.43459 37.0262Z" fill="white"/>
<path d="M37.9043 5.42578C38.0551 5.52539 38.2358 5.56965 38.4155 5.55101C38.5953 5.53238 38.763 5.45201 38.8902 5.32359C39.0173 5.19517 39.096 5.02664 39.1128 4.84671C39.1297 4.66679 39.0836 4.48659 38.9825 4.33681C38.8814 4.18703 38.7315 4.07694 38.5583 4.02528C38.3851 3.97362 38.1994 3.98359 38.0328 4.0535C37.8661 4.1234 37.7289 4.24892 37.6444 4.40866C37.5599 4.56841 37.5334 4.7525 37.5694 4.92959C37.5895 5.03039 37.6294 5.12618 37.687 5.21138C37.7445 5.29657 37.8184 5.36945 37.9043 5.42578Z" fill="white"/>
<path d="M3.66475 34.736L3.66377 34.7331C2.03193 31.1619 1.32313 27.2381 1.60242 23.3218C1.88172 19.4054 3.14015 15.6219 5.26224 12.3185C7.38433 9.01505 10.3021 6.2975 13.7478 4.41521C17.1935 2.53293 21.0568 1.54619 24.9831 1.54556C28.5529 1.53629 32.0767 2.35 35.281 3.92349C35.3731 3.96863 35.4732 3.99518 35.5756 4.00162C35.6781 4.00807 35.7807 3.99428 35.8778 3.96104C35.9749 3.92781 36.0645 3.87578 36.1414 3.80792C36.2184 3.74007 36.2812 3.65772 36.3264 3.56558C36.3715 3.47343 36.3981 3.3733 36.4045 3.2709C36.411 3.16849 36.3972 3.06582 36.3639 2.96875C36.3307 2.87167 36.2787 2.78209 36.2108 2.70512C36.143 2.62816 36.0606 2.56531 35.9685 2.52017C32.5495 0.845648 28.792 -0.0223121 24.9851 -0.016943H24.9831C23.2909 -0.0175098 21.603 0.152953 19.945 0.491846C16.747 1.1462 13.7093 2.42447 11.0056 4.25357C6.9865 6.9671 3.84031 10.7876 1.94795 15.2525C0.647988 18.3317 -0.0201775 21.6407 -0.0168947 24.9831C-0.0173158 26.8007 0.179142 28.613 0.569043 30.3883C0.948752 32.109 1.51051 33.7845 2.24482 35.3863C2.30718 35.5222 2.4072 35.6374 2.53303 35.7183C2.65886 35.7991 2.80523 35.8422 2.95479 35.8423H2.95576C3.06775 35.8427 3.17846 35.8184 3.27998 35.7711C3.46821 35.6848 3.61447 35.5273 3.68661 35.3332C3.75876 35.1391 3.7509 34.9243 3.66475 34.736Z" fill="white"/>
<path d="M8.73392 12.7952C6.0847 16.3051 4.65766 20.5859 4.67093 24.9834C4.67093 36.1836 13.7831 45.2959 24.9834 45.2959C29.3808 45.3093 33.6617 43.8824 37.1716 41.2334L37.8907 40.6921L9.27464 12.0759L8.73392 12.7952ZM35.4981 40.5092C32.3991 42.621 28.7335 43.745 24.9834 43.7334C14.6447 43.7334 6.23343 35.3221 6.23343 24.9834C6.22174 21.2333 7.34576 17.5675 9.45755 14.4685L35.4981 40.5092Z" fill="white"/>
<path d="M41.2329 37.1716C43.882 33.6616 45.3088 29.3808 45.2954 24.9834C45.2954 13.7831 36.1832 4.67087 24.9829 4.67087C20.5856 4.6577 16.305 6.08477 12.7952 8.73395L12.076 9.27458L40.6922 37.8906L41.2329 37.1716ZM14.4686 9.45749C17.5676 7.34569 21.2333 6.22168 24.9834 6.23337C35.3222 6.23337 43.7334 14.6446 43.7334 24.9834C43.7451 28.7334 42.621 32.3991 40.5093 35.498L14.4686 9.45749Z" fill="white"/>
<path d="M25.6563 10.1241H25.1768C23.3797 10.1197 21.6035 10.5102 19.9739 11.2679C19.8808 11.3111 19.7972 11.3722 19.7277 11.4477C19.6583 11.5232 19.6044 11.6117 19.5691 11.708C19.5339 11.8044 19.5179 11.9067 19.5222 12.0092C19.5265 12.1117 19.551 12.2124 19.5942 12.3055C19.6373 12.3985 19.6984 12.4822 19.774 12.5516C19.8495 12.6211 19.9379 12.6749 20.0343 12.7102C20.1306 12.7455 20.233 12.7614 20.3355 12.7571C20.438 12.7528 20.5386 12.7284 20.6317 12.6852C22.0553 12.0235 23.6069 11.6826 25.1768 11.6866H25.6563C27.109 11.6865 28.5475 11.9725 29.8896 12.5284C31.2318 13.0842 32.4513 13.899 33.4785 14.9261C34.5058 15.9533 35.3207 17.1727 35.8766 18.5148C36.4326 19.8569 36.7188 21.2954 36.7188 22.7481C36.7188 24.3759 36.3389 26.0235 35.5897 27.645C35.5457 27.7383 35.5206 27.8394 35.5159 27.9424C35.5111 28.0454 35.5268 28.1483 35.562 28.2452C35.5973 28.3421 35.6513 28.4311 35.7211 28.507C35.7909 28.5829 35.875 28.6443 35.9686 28.6875C36.0622 28.7308 36.1635 28.7551 36.2665 28.759C36.3695 28.7629 36.4723 28.7464 36.569 28.7104C36.6656 28.6745 36.7541 28.6197 36.8295 28.5493C36.9049 28.479 36.9656 28.3944 37.0081 28.3004C37.853 26.4719 38.2813 24.6038 38.2813 22.7481C38.2813 21.0902 37.9547 19.4485 37.3202 17.9169C36.6857 16.3852 35.7558 14.9935 34.5834 13.8213C33.4111 12.649 32.0193 11.7191 30.4876 11.0848C28.9559 10.4504 27.3142 10.124 25.6563 10.1241Z" fill="white"/>
<path d="M11.0403 29.3262L12.9184 30.1791L14.001 34.2443C14.1201 34.7282 14.3983 35.1581 14.7908 35.4651C15.1834 35.7721 15.6677 35.9385 16.166 35.9375H20.3125V37.9875C19.5344 38.4244 18.7909 38.9202 18.0886 39.4707C18.0072 39.5339 17.9391 39.6125 17.8882 39.702C17.8373 39.7916 17.8046 39.8903 17.792 39.9926C17.7794 40.0948 17.7871 40.1985 17.8148 40.2978C17.8424 40.397 17.8894 40.4898 17.9531 40.5708C18.0168 40.6518 18.0958 40.7194 18.1857 40.7698C18.2756 40.8201 18.3745 40.8521 18.4768 40.8641C18.5792 40.876 18.6828 40.8676 18.7819 40.8393C18.881 40.811 18.9734 40.7634 19.054 40.6992C19.8075 40.1093 20.6124 39.5881 21.459 39.1419L21.875 38.9219V34.375H16.166C16.0163 34.3753 15.8709 34.3252 15.7531 34.2328C15.6354 34.1404 15.5521 34.011 15.5168 33.8655L14.2383 29.0625L11.7395 27.9276L14.3598 22.6881V22.5039C14.3598 22.3209 14.3644 22.1375 14.3735 21.9584C14.3839 21.7515 14.3118 21.5489 14.1728 21.3951C14.0339 21.2414 13.8396 21.1492 13.6327 21.1387C13.4257 21.1282 13.2231 21.2004 13.0694 21.3393C12.9156 21.4783 12.8234 21.6726 12.8129 21.8795C12.8056 22.0236 12.8009 22.1699 12.7987 22.3166L10.3166 27.2798C10.2253 27.4604 10.1716 27.6577 10.1589 27.8596C10.1462 28.0616 10.1746 28.2641 10.2425 28.4547C10.3105 28.6459 10.4161 28.8216 10.5531 28.9712C10.6902 29.1209 10.8558 29.2416 11.0403 29.3262Z" fill="white"/>
<path d="M30.9396 40.627C31.0904 40.7692 31.2914 40.8457 31.4986 40.8396C31.7057 40.8335 31.9019 40.7454 32.0441 40.5947C32.1862 40.4439 32.2627 40.2429 32.2566 40.0358C32.2506 39.8286 32.1625 39.6324 32.0117 39.4902C31.5202 39.0274 31.0052 38.5902 30.4687 38.1804V37.5C30.4687 37.2928 30.3864 37.0941 30.2399 36.9476C30.0934 36.8011 29.8947 36.7188 29.6875 36.7188C29.4803 36.7188 29.2816 36.8011 29.1351 36.9476C28.9886 37.0941 28.9062 37.2928 28.9062 37.5V38.967L29.2254 39.2014C29.8254 39.6411 30.3979 40.1172 30.9396 40.627Z" fill="white"/>
</g>
<defs>
<clipPath id="clip0">
<rect width="50" height="50" fill="white"/>
</clipPath>
</defs>
</svg>
